<svg width="70" height="56" viewBox="0 0 70 56" fill="none" xmlns="http://www.w3.org/2000/svg">
<g clip-path="url(#clip0_152_2)">
<mask id="mask0_152_2" style="mask-type:luminance" maskUnits="userSpaceOnUse" x="0" y="0" width="70" height="56">
<path d="M70 0H0V55.9602H70V0Z" fill="white"/>
</mask>
<g mask="url(#mask0_152_2)">
<path d="M36.3907 8.14564C37.2185 9.17212 38.9735 10.596 40.3973 10.0662C41.8543 9.50329 41.192 7.6821 40.5297 6.75493C39.7019 5.59598 38.1126 4.13903 36.5563 4.47016C34.702 4.86751 35.5298 7.05294 36.2914 8.04631C36.3245 8.07942 36.3576 8.11253 36.3907 8.14564ZM37.3178 5.76155C38.245 5.99334 39.0728 6.85426 39.5695 7.61588C39.8344 8.0132 40.3973 8.97346 39.5032 8.80791C38.6754 8.64236 37.9469 7.98009 37.3841 7.35093C37.1192 6.98672 36.788 6.58936 36.6887 6.12579C36.6225 5.6291 36.8873 5.66221 37.3178 5.76155Z" fill="#C2C5AA"/>
<path d="M15.1656 23.1456C21.0596 26.1258 27.3509 28.0132 33.9735 28.2119C34.437 28.2119 34.5695 27.4503 34.0728 27.3841C27.7814 26.4238 21.4238 25.0331 15.5629 22.4172C15.0993 22.1854 14.6688 22.8808 15.1656 23.1456Z" fill="#C2C5AA"/>
<path d="M24.8013 8.87402C24.8675 8.87402 24.9338 8.84091 24.9669 8.8078C26.3245 8.50981 28.5761 7.64888 28.808 6.1257C29.0398 4.50318 26.9206 4.33762 25.7947 4.50318C24.2716 4.70186 21.8874 5.43033 21.3576 7.08594C20.6954 9.10586 23.6093 9.07275 24.8013 8.87402ZM22.649 7.28467C22.6821 7.05283 23.2781 6.68861 23.4768 6.58927C24.3047 6.05947 25.5298 5.72835 26.5232 5.72835C26.7218 5.72835 27.3179 5.69523 27.4503 5.89391C27.6159 6.15882 26.9205 6.58927 26.7218 6.72173C26.0596 7.18527 25.298 7.41711 24.5033 7.61577C24.4702 7.61577 24.4371 7.61577 24.4371 7.61577C24.2053 7.68199 22.5497 8.01309 22.649 7.28467Z" fill="#C2C5AA"/>
<path d="M26.8542 11.5894C26.6887 13.1125 28.4436 14.3046 29.702 14.8675C29.7351 14.9007 29.8013 14.9338 29.8675 14.9669C31.0264 15.3973 33.2781 15.5629 33.1787 13.7417C33.1125 12.1192 31.2582 10.9602 29.9006 10.5298C28.841 10.1324 27.0198 10.0662 26.8542 11.5894ZM29.5695 11.755C30.3642 12.0198 31.3906 12.5828 31.788 13.3775C32.2847 14.3709 30.6953 13.8741 30.2317 13.6755C30.2317 13.6755 30.2317 13.6755 30.1986 13.6755C29.5363 13.3444 28.7748 12.9139 28.3774 12.2517C27.7483 11.2582 28.9404 11.5232 29.5695 11.755Z" fill="#C2C5AA"/>
<path d="M69.2715 25.3311C67.6159 23.278 65.0331 24.8012 63.0463 23.9734C65.7947 15.6953 59.2384 8.87406 52.5828 4.9668C43.6424 -0.231877 32.947 -1.0928 22.947 1.19197C17.0199 2.54958 10.4305 5.99329 7.64903 11.6886C6.72184 11.6886 5.76158 11.5231 4.96687 11.2913C4.13906 11.0595 3.37747 10.7615 2.51654 11.0264C1.0927 11.49 0.198663 12.9801 0.0330999 14.4039C-0.0331253 15.1655 0.0993248 15.7946 0.331113 16.5231C0.596014 17.4503 0.16555 18.0463 0.198663 19.0066C0.198663 20.2648 0.794691 21.3906 1.75495 22.086C1.25827 23.4437 1.22516 24.7681 1.98674 25.927C2.58277 26.8211 3.54303 26.9204 4.53641 26.8211C4.73509 27.2847 4.96687 27.7482 4.83443 28.3443C4.56952 29.6356 4.43707 30.6622 5.46356 31.6556C3.60926 36.0927 4.5033 41.0595 7.48341 44.9005C11.0927 49.5033 17.0199 52.1192 22.4503 53.8409C28.841 55.8609 35.596 56.4568 42.2516 55.5297C47.6821 54.7681 53.3774 53.245 57.3179 49.2052C59.2715 47.1853 60.3973 44.5363 60.5961 41.7549C60.6623 40.6622 60.6954 38.576 60.1655 37.0529C60.298 37.086 60.4304 37.086 60.5961 37.1191C61.6225 37.2516 62.7152 37.3509 63.6755 36.9536C64.6026 36.5562 65.3973 35.7284 65.6953 34.735C65.894 34.1058 65.7284 33.3112 65.9934 32.7483C66.2914 32.0198 67.3841 31.5562 67.9801 31.0926C69.6027 29.735 70.8281 27.2516 69.2715 25.3311ZM13.0464 8.47674C15.3973 6.25819 18.3774 4.86746 21.4569 3.94031C29.9668 1.42375 39.7682 1.55621 47.947 5.16547C54.0728 7.88069 61.7219 13.0132 61.4238 20.5297C61.3245 22.7483 60.6292 25.1655 58.7748 26.5893C56.6887 28.2118 53.7417 28.841 51.192 29.2714C49.2384 29.6025 47.2517 29.7682 45.2649 29.8675C45.0993 29.8344 44.9338 29.8344 44.8013 29.9006C41.0265 30.033 37.2517 29.8344 33.543 29.3708C33.4768 29.3708 33.4106 29.3708 33.3443 29.3708C28.4437 28.6754 23.5761 27.5496 18.9404 25.8277C15 24.3046 9.23838 21.8542 8.70862 17.0198C8.37745 13.841 10.8278 10.5297 13.0464 8.47674ZM53.8079 37.7151C53.3443 37.8476 52.4834 36.6555 52.2185 36.3575C51.1258 35.0331 49.9338 33.2449 48.543 31.8542C49.5364 31.7549 50.5298 31.6225 51.5231 31.49C53.0132 31.2582 54.5695 30.9271 56.0265 30.4304C55.6954 31.9204 55.4967 33.4767 55 34.9337C54.8675 35.3642 54.3378 37.5827 53.8079 37.7151ZM54.6689 40.3972C54.3709 41.3576 53.0463 41.5231 52.1854 41.4569C51.6225 41.4238 51.6225 40.5629 52.1854 40.5629C52.5497 40.5629 52.8808 40.4635 53.2119 40.2979C53.5431 40.1655 53.8079 39.9337 54.139 39.8675C54.4702 39.8675 54.7682 40.0661 54.6689 40.3972ZM46.1258 37.1191C46.0927 37.1191 46.0927 37.1191 46.0596 37.1191C44.7351 37.384 44.0397 37.1522 42.947 36.4238C42.3179 35.9933 41.755 35.6953 40.9603 35.7615C40.3973 35.7946 39.8675 35.9602 39.3709 36.2251C39.8344 35.4304 40.3973 34.8012 41.6556 35.0993C42.5496 35.2979 43.3443 35.7946 44.3046 35.629C45.5298 35.4635 46.0927 34.2383 47.1854 33.9403C47.2186 33.9734 47.2186 33.9734 47.2517 34.0065C47.8145 34.5695 48.3444 35.1986 48.841 35.7946C47.8145 35.7946 47.0198 36.5562 46.1258 37.1191ZM46.3576 41.2251C45.7616 43.1125 42.0199 43.1125 40.5629 42.4834C40.1656 42.3178 40.4636 41.6887 40.8609 41.788C41.755 42.0198 42.8146 41.7549 43.7086 41.5562C44.4702 41.3576 45.0662 40.8608 45.7947 40.6622C46.1258 40.5629 46.4901 40.8608 46.3576 41.2251ZM36.4901 38.7417C36.2251 38.9072 35.894 38.9734 35.4967 38.9403C34.1059 38.841 33.2781 38.6754 31.8874 39.0396C31.1589 39.2383 30.4305 39.5695 29.7682 38.8741C29.404 38.4767 29.2715 37.4833 29.0728 37.0198V36.9867C30 37.1191 30.9271 37.1522 31.7218 37.0529C34.437 36.7217 36.9536 34.6357 37.7814 32.0198C40.2318 32.1853 42.6821 32.2184 45.1324 32.1191C45.4967 32.4503 45.8609 32.7483 46.2252 33.0462C45.9602 33.1787 45.7285 33.3774 45.4967 33.6092C43.6755 35.2317 42.6821 33.7416 40.7947 33.9072C39.9006 33.9734 39.2715 34.5363 38.8079 35.2979C37.9801 36.5231 37.4503 37.6489 36.4901 38.7417ZM37.7483 42.1191C36.9867 42.7151 35.6954 42.4172 34.9338 41.9535C34.5033 41.6887 34.8013 41.0264 35.2649 41.1257C35.6623 41.225 36.0596 41.3244 36.457 41.3576C36.8212 41.3907 37.2185 41.3244 37.5828 41.4569C37.8145 41.5562 37.9801 41.9204 37.7483 42.1191ZM18.1457 32.8476C18.1126 32.8476 18.0794 32.8145 18.0463 32.8145C18.0794 32.8145 18.1457 32.8145 18.1788 32.8145C20.3311 32.5827 22.5165 31.4237 23.9735 29.7682C24.4702 29.9006 25 30.033 25.5298 30.1655C23.543 31.9536 20.7285 33.4768 18.1457 32.8476ZM21.5894 37.4833C20.6291 37.9138 18.9735 37.4833 18.5431 36.4569C18.3774 36.0264 18.8079 35.629 19.1721 35.9602C19.5033 36.2582 19.8344 36.49 20.298 36.5562C20.7285 36.6555 21.159 36.5893 21.5563 36.788C21.8543 36.9536 21.8543 37.384 21.5894 37.4833ZM7.35097 27.2847C7.31786 26.9535 7.18542 26.6886 7.01987 26.4238C7.81458 26.9204 7.74836 28.2118 8.6424 28.8079C9.37082 29.3045 10.1986 29.1721 10.9602 29.3708C10.1655 29.5363 9.53644 30.033 8.6424 30.2648C7.8808 30.596 7.28475 30.2979 6.92052 29.4039C6.98674 29.2383 7.01987 29.1059 7.08609 28.9403C7.1192 28.3443 7.41719 27.9139 7.35097 27.2847ZM8.84106 27.086C8.6424 26.7218 8.47678 26.3906 8.27812 26.0927C9.63577 25.9601 10.9933 25.9601 12.351 26.0264C12.086 26.6886 11.9536 27.4502 11.8874 28.1787C11.7549 28.1125 11.6225 28.0463 11.457 28.0132C10.4305 27.7151 9.40393 28.2118 8.84106 27.086ZM12.4834 34.5695C12.8808 35.2648 13.543 35.6953 14.3046 35.927C14.9669 36.1258 15.6622 36.1589 16.2914 36.5231C16.5894 36.7217 16.5231 37.1522 16.192 37.2516C14.5033 37.8145 12.2186 36.5893 11.6887 34.9006C11.5232 34.4039 12.2186 34.139 12.4834 34.5695ZM14.5695 30.6622C14.4702 30.4966 14.3708 30.3641 14.3377 30.1986C13.841 28.8741 14.3708 27.682 14.7682 26.4569C14.8676 26.49 14.9669 26.5562 15.0331 26.5893C14.6688 27.7482 14.3046 29.6356 15.6622 29.7682C16.3576 29.8344 17.053 29.1721 17.5497 28.7748C17.8146 28.5429 18.1457 28.3112 18.4106 28.0463C18.4768 28.0794 18.5431 28.0794 18.5762 28.1125C18.0132 28.9734 17.649 30.2648 18.7086 30.6622C19.3047 30.894 20.0662 30.5629 20.596 30.2648C21.0596 29.9999 21.5232 29.6356 21.9536 29.2383C22.2517 29.3377 22.5496 29.4039 22.8476 29.5032C21.6225 30.5297 20.298 31.2251 18.6093 31.49C16.9536 31.6887 15.8609 31.3906 14.5695 30.6622ZM15.7285 27.8145C15.7616 27.5165 15.8278 27.2185 15.894 26.9535C16.3907 27.1854 16.8543 27.384 17.351 27.5827C17.0199 27.8807 16.7219 28.1456 16.3576 28.3774C16.192 28.5098 15.9272 28.8079 15.6954 28.6092C15.6291 28.5429 15.6953 27.9139 15.7285 27.8145ZM19.139 29.3045C19.1721 29.2383 19.1721 29.2052 19.2053 29.139C19.3047 28.8741 19.4371 28.6423 19.5364 28.4105C19.9006 28.5429 20.2649 28.6754 20.6291 28.7748C20.3974 28.9734 20.1324 29.1721 19.8344 29.3045C19.702 29.3708 19.3709 29.5363 19.2384 29.5032C19.0728 29.5694 19.0397 29.5032 19.139 29.3045ZM22.5165 39.1721C23.1126 39.4039 23.7086 39.6688 24.3377 39.8013C25 39.9337 25.6623 39.9668 26.2914 40.1324C26.6225 40.2317 26.6887 40.7946 26.2914 40.8608C24.9669 41.0595 23.1126 40.8277 22.0861 39.8344C21.8543 39.6026 22.1192 39.0065 22.5165 39.1721ZM25.7947 32.8145C26.5232 32.1853 27.1192 31.4237 27.4835 30.596C29.1059 30.9271 30.7616 31.192 32.3841 31.4237C30.7616 33.4436 28.1457 34.5695 25.7947 32.8145ZM33.543 31.5893C34.2053 31.6556 34.8344 31.7218 35.4967 31.788C34.4702 33.3112 33.3112 34.5363 31.2252 34.735C30.7284 34.7681 30.2649 34.7681 29.7682 34.735C31.3245 34.3046 32.7484 33.1456 33.543 31.5893ZM46.7549 38.9072C46.8212 38.6423 47.086 38.5098 47.351 38.576C47.649 38.6091 47.947 38.6091 48.245 38.6091C48.543 38.576 48.841 38.4767 49.106 38.6754C49.3046 38.8079 49.3708 39.0065 49.2384 39.2383C49.0397 39.6026 48.6092 39.6357 48.245 39.6357C47.8476 39.6688 47.4834 39.6026 47.086 39.5364C46.8212 39.4701 46.6887 39.1721 46.7549 38.9072ZM3.41058 13.3443C4.10595 13.3112 4.96687 13.7085 5.72847 13.8079C6.12581 13.841 6.49005 13.841 6.82118 13.8079C6.75495 14.0396 6.68873 14.3045 6.62251 14.5364C6.55628 14.8675 6.49005 15.1986 6.45694 15.5297C6.15893 15.8277 5.79469 16.1919 5.46356 16.5893C5.39734 16.49 5.33111 16.3576 5.23177 16.2582C4.99999 15.9602 2.48343 13.7748 3.41058 13.3443ZM2.48343 19.0066C2.48343 18.4436 2.84767 17.9469 2.91389 17.3509C2.98012 16.2913 2.08608 15.4966 2.31787 14.4039C2.31787 14.437 2.35098 14.5033 2.35098 14.5364C2.58277 15.0992 2.98012 15.5628 3.41058 15.9933C3.90727 16.5231 4.2384 17.0198 4.5033 17.6158C3.90728 18.3443 3.27813 19.139 2.74833 19.9337C2.61588 19.6688 2.48343 19.3708 2.48343 19.0066ZM5.39734 24.2052C5.16555 24.2383 4.43707 24.5695 4.20529 24.4701C3.50992 24.2052 3.77482 23.5761 3.90727 23.0794C4.13906 22.3178 4.56952 21.5894 4.99999 20.9271C5.52979 20.1324 6.0927 19.3708 6.72184 18.6423C7.31786 20.629 8.70862 22.3509 10.3974 23.7416C8.74173 23.7085 7.05298 23.9072 5.39734 24.2052ZM57.947 43.841C57.2185 46.192 55.596 47.9469 53.6093 49.3376C49.8676 51.9535 45.1655 52.9469 40.6953 53.4436C30.6953 54.5363 18.8742 52.1523 11.1258 45.3973C7.48341 42.2184 5.62913 37.1522 7.54963 32.5827C7.58274 32.5827 7.61585 32.5827 7.61585 32.5827C7.4503 33.3443 7.4503 34.1058 7.74836 34.8343C8.24501 35.9933 9.43711 36.5231 10.1986 37.4833C11.6887 39.3708 13.6424 39.4701 15.8609 40.033C18.2781 40.6291 20.0993 42.4503 22.5828 42.8145C24.2053 43.0462 25.8278 42.9138 27.4835 43.2781C29.0066 43.6092 30.4967 44.1721 31.9868 44.6357C35.0662 45.5959 37.947 44.7681 41.0927 44.8674C42.4172 44.9005 43.7417 45.1655 45.0331 45.0993C46.457 45.033 47.5165 44.437 48.841 44.0396C50.3311 43.6092 51.8543 43.9734 53.3443 43.6092C54.4702 43.3443 55.5298 42.7151 56.3245 41.8873C57.1523 40.9933 57.8145 39.8344 58.1457 38.576C58.245 39.2052 58.2781 39.8675 58.2781 40.2317C58.4106 41.49 58.2781 42.7151 57.947 43.841ZM57.5496 33.7085C57.8145 32.3841 57.947 30.9933 57.7814 29.7019C59.5695 28.841 61.1589 27.6489 62.1854 25.927C62.8477 26.3244 63.6755 26.49 64.4702 26.5231C64.6689 26.5231 64.9337 26.5231 65.2318 26.49C64.8344 27.5165 64.8344 28.8741 63.6755 29.139C63.1457 29.2714 62.649 29.0065 62.0861 29.2714C61.7219 29.437 61.3907 29.735 61.1589 30.0661C60.1324 31.4237 59.8676 34.4039 57.5496 33.7085ZM67.5827 27.9139C67.2516 29.1059 65.7947 29.6356 64.9337 30.3641C64.2053 30.9933 63.8079 31.6556 63.6424 32.5827C63.3775 34.0396 63.3444 34.9668 61.6225 34.9006C60.9272 34.8674 60.2318 34.6357 59.5033 34.437C60.3642 34.0727 61.0265 33.2781 61.4238 32.2515C61.5894 31.8542 61.6556 31.2913 61.9205 30.9602C62.7483 29.8344 63.0794 30.2979 63.9404 30.1655C64.3046 30.1324 64.6357 30.033 64.9337 29.8013C65.3311 29.4701 65.5629 29.0066 65.7284 28.5098C65.8278 28.245 65.8278 27.9139 65.9271 27.682C66.1258 27.2516 66.5894 26.788 67.0861 26.5562C67.5496 26.7549 67.8146 27.1523 67.5827 27.9139Z" fill="#C2C5AA"/>
<path d="M6.05955 20.8609C5.72842 21.0596 5.49663 21.3907 5.26484 21.6556C5.03305 21.9536 4.73504 22.2185 4.6357 22.5828C4.53637 22.9139 4.9006 23.1787 5.19862 23.0132C5.52974 22.8476 5.76153 22.4834 5.99332 22.2185C6.25822 21.9205 6.49001 21.6556 6.62246 21.2913C6.78802 20.9933 6.35756 20.6953 6.05955 20.8609Z" fill="#C2C5AA"/>
<path d="M49.9337 13.1786C49.9999 13.1786 50.033 13.1454 50.0993 13.1123C51.2583 12.5495 52.947 10.9932 51.4569 9.80112C50.1324 8.74153 47.8145 9.37062 46.5563 10.1984C45.6622 10.7945 44.7019 12.0527 45.6954 13.013C46.7218 14.0726 48.7086 13.6753 49.9337 13.1786ZM47.2185 11.3574C48.0132 10.8276 49.1059 10.4964 50.033 10.6289C51.4238 10.8276 50.0662 11.6885 49.4371 12.0196C49.4371 12.0196 49.4371 12.0196 49.404 12.0196C48.7748 12.2514 48.0794 12.417 47.4171 12.3508C46.4569 12.3177 46.3907 11.8872 47.2185 11.3574Z" fill="#C2C5AA"/>
<path d="M54.0397 32.9138C53.7086 33.8078 53.3443 34.8012 53.1126 35.7284C52.9801 36.192 53.6424 36.4568 53.8742 36.0595C54.404 35.1986 54.702 34.0396 54.7351 33.0462C54.7682 32.5827 54.1721 32.5496 54.0397 32.9138Z" fill="#C2C5AA"/>
<path d="M58.4437 22.9139C58.3444 23.4106 58.9735 23.6755 59.2384 23.245C61.3907 19.9668 59.4702 15.9934 57.0198 13.543C56.7218 13.2119 56.1258 13.6423 56.3907 14.0397C58.3775 16.7881 59.1722 19.5364 58.4437 22.9139Z" fill="#C2C5AA"/>
<path d="M39.5033 13.3773C38.4106 13.5097 36.8212 14.2051 37.2517 15.5959C37.6821 17.0197 39.8013 17.417 41.1258 17.3839C41.192 17.3839 41.2251 17.417 41.3245 17.3839C42.5497 17.2845 44.7682 16.5892 43.9404 14.9005C43.1788 13.4435 40.9271 13.2117 39.5033 13.3773ZM42.649 15.3971C42.8146 16.0594 41.6225 16.1256 41.2582 16.1256C41.2251 16.1256 41.2251 16.1256 41.192 16.1256C40.4304 16.0594 37.1523 15.364 39.1722 14.7349C40 14.5031 41.0596 14.5693 41.8543 14.8674C42.053 14.9667 42.6159 15.1654 42.649 15.3971Z" fill="#C2C5AA"/>
<path d="M56.2914 43.4105C55.7284 44.0065 55.2649 44.7681 54.7682 45.4304C54.2052 46.1588 53.6424 46.8211 53.0132 47.4834C52.6821 47.8145 53.1125 48.4105 53.5099 48.1456C54.3378 47.5496 55.2318 46.8542 55.9271 46.0926C56.5563 45.3973 57.2185 44.6026 57.053 43.6092C56.9868 43.2781 56.5232 43.1787 56.2914 43.4105Z" fill="#C2C5AA"/>
</g>
</g>
<defs>
<clipPath id="clip0_152_2">
<rect width="70" height="56" fill="white"/>
</clipPath>
</defs>
</svg>
