<svg width="73" height="70" viewBox="0 0 73 70" fill="none" xmlns="http://www.w3.org/2000/svg">
<g id="sticker-potatoes" clip-path="url(#clip0_109_409)">
<g id="Clip path group">
<mask id="mask0_109_409" style="mask-type:luminance" maskUnits="userSpaceOnUse" x="0" y="0" width="73" height="70">
<g id="clip0_101_51">
<path id="Vector" d="M72.3977 15.5291L14.4421 0L0.0741876 53.6219L58.0297 69.1511L72.3977 15.5291Z" fill="white"/>
</g>
</mask>
<g mask="url(#mask0_109_409)">
<g id="Group">
<path id="Vector_2" d="M31.5623 38.6881C27.7033 36.7428 21.8753 35.5634 18.2882 38.7472C14.1207 42.4517 18.3448 48.0813 21.6159 50.5746C21.6909 50.6242 21.7658 50.6736 21.8481 50.6957C25.1011 53.0372 29.586 54.6211 33.6015 54.2271C36.7955 53.9365 39.8525 51.9628 39.7671 48.4417C39.6626 44.0041 35.169 40.4777 31.5623 38.6881ZM32.9032 52.335C29.3198 52.4332 25.6376 51.0349 22.7098 49.0157C22.6622 48.9736 22.6422 48.9388 22.5947 48.8967C20.3506 47.1783 16.4928 42.7051 19.6914 40.0933C22.7362 37.6167 27.6606 38.8773 30.7882 40.4797C33.6564 41.9537 37.5765 44.768 37.7917 48.3533C38.0207 51.1192 35.2738 52.2647 32.9032 52.335Z" fill="#333D29"/>
<path id="Vector_3" d="M69.0704 27.8369C69.2366 26.5586 69.2313 24.8227 68.2905 23.8357C67.5123 23.0099 66.5523 22.7526 65.5316 22.8319C66.3775 22.0884 67.1432 21.2059 67.1628 20.0353C67.2449 17.2057 64.0913 14.2735 61.4443 16.0336C58.38 18.0346 55.6182 20.8811 53.047 23.4553C53.2596 23.1007 53.4722 22.7461 53.705 22.4263C54.5754 21.0427 56.1321 19.402 55.9001 17.6348C55.7063 16.0542 54.3795 15.0813 53.0194 14.4523C51.577 13.8012 50.4559 13.7066 49.3606 14.9418C48.6444 15.7494 47.9758 16.5991 47.3547 17.491C47.484 16.3498 47.1579 15.2629 46.2572 14.3454C45.2689 13.3163 43.4725 12.0118 41.9482 12.5441C41.2345 12.7938 40.6668 13.3766 40.2068 14.1059C39.2371 12.7878 37.2996 11.6807 36.0427 11.873C36.3636 11.2241 36.657 10.5678 36.8957 9.89678C37.8593 7.06828 35.0392 5.19553 32.5226 4.93278C30.8383 4.74603 29.7503 5.95377 28.9675 7.44907C28.8382 6.94407 28.612 6.47188 28.2814 6.05993C26.8313 4.2309 21.7178 3.5663 21.0284 6.4683C20.6737 7.90189 20.818 9.55746 20.8747 11.1013C19.8482 9.88554 18.7174 8.72998 17.5003 7.78655C15.8483 6.49136 14.2638 6.91933 12.9084 8.46698C11.694 9.81725 10.6452 11.9762 12.1615 13.5584C13.0146 14.4337 14.0784 15.0715 14.9664 15.9268C15.3591 16.326 15.7519 16.7252 16.1099 17.1445C15.936 17.2449 15.8023 17.4148 15.7087 17.6544C14.9014 19.7898 14.4579 21.9934 13.8425 24.1803C13.2512 26.1678 12.7421 28.1774 12.2605 30.1944C11.2163 34.53 10.1722 38.8656 9.43715 43.2546C9.00049 45.8716 8.09255 49.4793 10.5468 51.401C11.709 52.3298 13.1514 52.9809 14.442 53.65C19.1399 56.0847 23.9441 58.3421 28.7851 60.4624C30.5968 61.2712 32.4159 62.0526 34.2643 62.7243C34.7232 62.8766 35.2022 63.0638 35.6833 63.1338C37.4974 63.3848 38.5947 62.0326 39.7722 60.8194C43.3672 57.1673 46.5292 53.0464 49.6692 49.0078C52.9355 44.8267 56.0319 40.5118 59.0058 36.1053C59.2459 35.7581 59.217 35.427 59.049 35.1762C60.0576 34.5939 61.0935 34.019 62.1422 33.5063C63.6009 32.78 65.2276 32.3046 66.626 31.474C68.0245 30.6434 68.8509 29.4244 69.0704 27.8369ZM54.7105 33.4845C54.2536 33.2151 53.7893 32.9731 53.3176 32.7586C55.2035 31.2061 57.0893 29.6536 59.0829 28.2475C59.9195 27.6486 61.7633 26.1436 63.4855 25.3116C63.2758 26.3137 63.6582 27.739 63.8163 28.5751C63.8652 28.941 63.9637 29.232 64.0694 29.4955C60.8328 30.2745 57.3542 31.5177 54.7105 33.4845ZM66.6574 25.1031C67.5875 25.9109 67.3018 27.7452 66.5944 28.8492C66.3583 28.9622 66.1296 29.048 65.8332 29.0568C64.9918 29.1253 64.983 28.829 64.8376 28.055C64.745 27.4129 64.6525 26.7708 64.5874 26.136C64.5385 25.7701 64.4768 25.342 64.7443 25.0021C64.8212 24.9345 65.072 24.7665 65.2733 24.6735C65.8239 24.7034 66.2975 24.801 66.6574 25.1031ZM61.4999 18.4591C62.1426 17.9258 62.822 17.2553 63.6777 17.5728C64.3139 17.8314 64.9383 18.7925 65.0783 19.4767C65.4039 21.0044 63.1928 22.2346 62.2205 23.1206C61.3599 23.9189 60.4444 24.7025 59.5837 25.5008C56.6585 27.4215 53.7641 29.5563 51.2096 31.9585C50.1051 31.692 48.9967 31.6596 47.9064 31.779C51.3221 28.1376 54.6354 24.4394 58.3836 21.093C59.3834 20.2143 60.4453 19.323 61.4999 18.4591ZM49.3643 18.0001C49.7728 17.4628 50.2421 16.5891 50.8206 16.1855C51.4412 15.7345 52.2253 16.2092 52.8321 16.5775C53.6163 17.0522 54.1349 17.7497 53.7131 18.6656C53.427 19.2945 52.9489 19.8719 52.5879 20.4513C51.7248 21.8075 50.889 23.171 50.0259 24.5272C48.3839 27.1446 46.515 29.7305 45.0777 32.4615C44.3092 32.6966 43.5608 32.9664 42.8124 33.2362C43.0981 31.4019 43.2393 29.5584 43.2287 27.7328C43.6137 26.9541 44.1159 26.1774 44.4715 25.5083C45.2029 24.205 45.9617 22.909 46.7753 21.6278C47.5743 20.4014 48.4555 19.1971 49.3643 18.0001ZM34.803 23.7407C34.874 24.0243 34.9103 24.328 34.9812 24.6116C33.7065 27.5038 32.3201 30.4836 31.3873 33.5261C31.0053 33.3062 30.6379 33.0314 30.3054 32.7365C31.3779 29.1728 32.9127 25.9682 34.5993 22.7455C34.6483 23.1114 34.7394 23.4298 34.803 23.7407ZM35.5021 28.0437C35.7536 30.2865 35.846 32.5748 35.7665 34.8465C34.7751 34.8161 33.7931 34.6411 32.7876 34.2247C33.7649 32.223 34.6198 30.1297 35.5021 28.0437ZM37.7384 34.7282C37.8219 32.2224 37.6987 29.72 37.3688 27.221C37.1984 25.8818 36.9659 24.5555 36.6712 23.2418C36.4018 22.0525 35.8255 20.6928 36.7831 19.8617C37.0709 22.4082 37.5801 24.8965 37.8404 27.4356C38.1175 29.8028 38.5517 32.2416 38.3531 34.6283C38.1665 34.6665 37.9524 34.6973 37.7384 34.7282ZM39.3558 34.3972C39.4975 32.1128 39.0887 29.7985 38.7749 27.5684C38.4069 24.8828 38.123 22.1022 37.5134 19.4401C40.877 18.0777 40.999 23.108 41.1429 25.2043C41.2329 26.4043 41.2406 27.5823 41.2209 28.7529C41.1895 28.9797 41.193 29.1864 41.1963 29.3931C41.1433 30.9076 41.0281 32.4347 40.858 33.9472C40.3804 34.0838 39.8681 34.2405 39.3558 34.3972ZM45.4519 16.3638C45.9954 17.6266 44.8722 19.2952 44.3367 20.4158C43.9076 21.3591 43.4236 22.2878 42.9195 23.1816C42.8887 22.9676 42.8578 22.7535 42.827 22.5395C42.6493 21.2278 42.5084 19.779 41.6792 18.7043C42.1118 17.9677 42.442 17.1742 42.8471 16.4302C43.1459 15.8635 43.4923 15.339 43.8185 14.7797C44.5826 15.2196 45.253 15.899 45.4519 16.3638ZM41.2651 16.3003C41.4924 15.8909 41.854 14.8706 42.2786 14.6022C42.4525 14.5019 42.6739 14.4436 42.9007 14.475C42.6607 14.8222 42.5156 15.2537 42.3525 15.5333C41.8906 16.3797 41.4487 17.2608 41.1713 18.186C40.9539 18.0102 40.7291 17.8617 40.4969 17.7407C40.7737 17.2563 41.0231 16.7646 41.2651 16.3003ZM39.1345 16.0233C38.9346 16.4402 38.7695 16.8369 38.5917 17.1714C38.5843 17.1988 38.577 17.2262 38.5623 17.2811C38.3282 17.2772 38.0867 17.3007 37.8452 17.3242C36.5609 17.5092 35.2541 18.2173 34.6417 19.4055C34.3282 20.027 34.2615 20.7148 34.3467 21.3843C33.0931 23.4296 31.8925 25.6067 30.9112 27.8425C31.3439 25.4597 31.879 23.1337 32.5659 20.7895C33.069 19.1311 33.6344 17.46 34.2473 15.8309C34.6505 15.2041 35.1212 14.654 35.6448 14.2358C37.1261 12.9864 38.1481 14.8772 39.1345 16.0233ZM35.1227 8.83377C35.0634 9.49401 34.4074 10.406 34.1287 11.0074C33.5217 12.2853 32.9623 13.6052 32.4576 14.9399C30.4632 20.0791 29.1231 25.6289 28.8166 31.1617C28.5408 30.7644 28.2999 30.3471 28.1011 29.8822C28.008 29.6809 27.9223 29.4522 27.8567 29.2583C28.4114 25.7616 29.1362 22.3987 30.1444 18.9648C31.2777 15.0647 32.6157 11.2781 34.0981 7.50093C34.6246 7.7302 35.1894 8.1461 35.1227 8.83377ZM30.7699 8.40237C31.076 7.80826 31.3695 7.15196 32.0337 6.97717C32.4764 6.86062 32.9427 6.98557 33.3669 7.15801C31.5827 10.8543 30.3598 14.7599 29.1918 18.6802C28.4682 21.1614 27.6182 23.7852 27.0919 26.4075C26.9974 25.8825 26.8682 25.3775 26.7389 24.8725C27.9774 21.6767 28.3842 17.964 28.7303 14.5878C28.8116 13.8453 28.893 13.1028 28.9396 12.3803C29.0166 12.3127 29.0734 12.2104 29.1375 12.0806C29.6749 10.8429 30.1301 9.58321 30.7699 8.40237ZM27.3887 9.17204C27.4061 11.4109 27.043 13.7536 26.7641 16.0013C26.5019 18.077 26.0203 20.094 25.566 22.1183C25.4255 21.8748 25.2501 21.6514 25.0474 21.4207C25.6647 19.1168 25.8031 16.6256 26.0492 14.281C26.2898 11.8467 26.3861 9.40313 26.3304 6.97765C26.9921 7.36073 27.3937 8.05628 27.3887 9.17204ZM23.2286 6.70506C23.5911 6.44942 23.763 6.46608 24.2038 6.46661C24.6994 6.48183 25.1329 6.50978 25.5443 6.62002C25.4682 9.09841 25.3372 11.5621 25.0965 13.9964C24.8745 16.1416 24.4183 18.283 24.1066 20.4337C23.8416 20.2157 23.5492 19.9904 23.2147 19.8126C22.7577 19.5432 22.2586 19.3212 21.7522 19.1267C22.5714 16.2889 22.7176 13.3295 22.7742 10.3756C22.788 9.55615 22.7944 8.76414 22.8082 7.9447C22.8381 7.39417 22.7196 7.06844 23.2286 6.70506ZM15.732 8.90019C16.3501 9.00699 16.9765 9.85097 17.3894 10.285C18.5677 11.4826 19.7387 12.7077 20.7633 14.0405C20.7834 14.0754 20.8108 14.0827 20.8583 14.1248C20.8396 14.4138 20.8137 14.7302 20.795 15.0192C20.1559 14.113 19.3302 13.245 18.6671 12.5382C17.5509 11.3278 16.2207 10.1482 14.8097 9.27037C15.11 9.02745 15.423 8.84676 15.732 8.90019ZM14.2623 12.7396C13.1402 11.8804 13.2965 11.1873 14.0788 10.1329C14.1357 10.0305 14.2199 9.93551 14.3042 9.8405C15.534 10.8462 16.7638 11.8518 17.8525 13.0549C18.5083 13.7891 19.1293 14.5435 19.7008 15.3727C20.0441 15.8469 20.2904 16.3538 20.6337 16.828C20.5543 17.4534 20.4823 18.0515 20.3755 18.6696C19.7319 18.4384 19.0609 18.1998 18.4741 17.8662C17.8904 16.5339 17.0231 15.2726 16.0073 14.236C15.4794 13.6831 14.8745 13.1976 14.2623 12.7396ZM35.9361 61.2026C35.9635 61.21 35.9635 61.21 35.9361 61.2026V61.2026ZM41.3929 56.1973C40.1071 57.7048 38.7644 59.3147 37.241 60.6115C36.8217 60.9696 36.4592 61.2252 35.9014 61.2227C35.8739 61.2153 35.8739 61.2153 35.8465 61.208C35.627 61.1492 35.4076 61.0904 35.1956 61.0042C33.6268 60.4956 32.1095 59.7951 30.6048 59.1567C26.1057 57.1868 21.636 55.1073 17.2305 52.8979C15.6254 52.0857 14.0131 51.3009 12.4723 50.3589C12.1177 50.1463 11.6407 49.8421 11.5255 49.7231C10.3967 48.4504 10.873 46.3439 11.0979 44.8461C11.8369 40.223 12.885 35.6532 13.9879 31.0982C14.4695 29.0812 14.9786 27.0717 15.5499 25.0493C16.1707 22.952 16.5994 20.8033 17.3025 18.7281C17.3975 18.8124 17.4724 18.8619 17.5674 18.9461L17.5875 18.9809C17.6477 19.0852 17.7501 19.1421 17.8598 19.1714C18.9966 19.9758 20.2964 20.5005 21.6418 21.1844C23.766 22.2533 24.4937 24.0357 25.0142 26.2624C25.4509 28.1432 25.7833 30.0844 26.8019 31.7683C27.8279 33.425 29.3207 34.7657 31.0629 35.6146C32.8251 36.4984 34.5971 36.7968 36.3751 36.7441C36.5671 36.7955 36.8086 36.772 37.0025 36.7064C39.044 36.5479 41.0934 35.9211 43.1722 35.1847C45.3553 34.3879 47.8259 33.2861 50.196 33.6565C52.3467 33.9683 54.319 35.0553 56.2659 36.0179C56.3335 36.0949 56.4285 36.1791 56.5309 36.2359C51.862 43.128 46.8312 49.8348 41.3929 56.1973ZM56.7979 34.6906C56.4434 34.478 56.0888 34.2654 55.7341 34.0528C58.4307 32.2178 61.7006 31.0949 64.782 30.1274C64.8369 30.1421 64.8643 30.1494 64.9192 30.1641C64.2805 30.4633 63.5742 30.6856 62.9354 30.9849C60.743 31.926 58.649 33.1582 56.7979 34.6906Z" fill="#333D29"/>
<path id="Vector_4" d="M16.7453 27.2805C16.8977 26.8216 16.1845 26.6305 16.0322 27.0894C14.7016 30.8485 13.634 34.9426 13.353 38.9536C13.3397 39.3322 13.9377 39.4042 14.0059 39.0403C14.8373 35.0593 15.5847 31.1733 16.7453 27.2805Z" fill="#333D29"/>
<path id="Vector_5" d="M35.6983 45.8523C35.3531 45.4952 34.8275 46.0305 35.1728 46.3876C35.7007 46.9406 35.8554 47.57 36.1052 48.2837C36.2438 48.6442 36.7889 48.5845 36.7748 48.1986C36.8106 47.2968 36.2738 46.4474 35.6983 45.8523Z" fill="#333D29"/>
<path id="Vector_6" d="M49.7139 42.2584C48.1694 44.4021 46.6248 46.5459 44.9305 48.5906C43.4119 50.4179 41.5863 52.0748 40.1628 53.9863C39.9374 54.2787 40.3851 54.6926 40.6706 54.5046C42.6863 53.0163 44.3827 50.8544 45.958 48.9247C47.5755 46.9476 49.0706 44.8788 50.3682 42.6689C50.6029 42.232 49.9887 41.8911 49.7139 42.2584Z" fill="#333D29"/>
<path id="Vector_7" d="M45.811 28.1895C46.487 27.3123 47.1703 26.4077 47.6416 25.4169C47.7847 25.1025 47.3644 24.6959 47.1043 25.0084C46.3808 25.8434 45.8199 26.8396 45.3012 27.7883C45.1507 28.1302 45.5783 28.5093 45.811 28.1895Z" fill="#333D29"/>
<path id="Vector_8" d="M46.7496 24.7959C47.1214 24.3958 47.5226 23.886 47.7171 23.3796C47.8327 23.0577 47.4086 22.8853 47.2126 23.068C46.8281 23.4059 46.5018 23.9653 46.2946 24.4095C46.1241 24.7166 46.5042 25.0536 46.7496 24.7959Z" fill="#333D29"/>
<path id="Vector_9" d="M54.4128 27.0255C54.7352 26.7003 55.03 26.3677 55.3122 25.9729C55.5101 25.6732 55.0477 25.3142 54.8298 25.5791C54.5623 25.919 54.2949 26.2589 54.0073 26.5641C53.6924 26.8618 54.1327 27.3032 54.4128 27.0255Z" fill="#333D29"/>
<path id="Vector_10" d="M56.5043 26.3514C56.733 26.2658 56.9216 26.1105 57.1175 25.9278C57.3061 25.7726 57.5021 25.5899 57.5883 25.3778C57.724 25.0908 57.4536 24.7832 57.148 24.9365C56.9467 25.0295 56.813 25.1995 56.6317 25.3273C56.4779 25.4624 56.2966 25.5903 56.1703 25.7328C55.9724 26.0325 56.1712 26.4974 56.5043 26.3514Z" fill="#333D29"/>
<path id="Vector_11" d="M61.3468 28.7953C60.9241 28.9466 60.5342 29.1949 60.0914 29.3114C59.7108 29.4153 59.8803 29.9898 60.2535 29.9134C60.6962 29.7969 61.2013 29.6677 61.5985 29.3919C61.7102 29.3042 61.8092 29.1544 61.7288 29.0153C61.6632 28.8213 61.4859 28.715 61.3468 28.7953Z" fill="#333D29"/>
<path id="Vector_12" d="M23.4233 15.1942C23.3478 15.5855 23.9439 15.7746 24.0541 15.3632C24.0982 15.1987 24.1423 15.0341 24.1864 14.8695C24.2305 14.7049 24.2197 14.5256 24.2638 14.3611C24.2805 14.1892 24.2075 14.0227 24.043 13.9786C23.8784 13.9345 23.7045 14.0348 23.6604 14.1994C23.6163 14.364 23.5448 14.5212 23.5281 14.6932C23.4639 14.8229 23.4747 15.0022 23.4233 15.1942Z" fill="#333D29"/>
<path id="Vector_13" d="M23.6914 12.7674C23.8398 12.5426 23.8805 12.1713 23.7326 11.9553C23.6121 11.7466 23.2957 11.7207 23.1747 11.9528C23.1032 12.11 23.0444 12.3295 23.0003 12.494C22.9522 12.8927 23.4313 13.0798 23.6914 12.7674Z" fill="#333D29"/>
<path id="Vector_14" d="M34.4479 17.825C34.6252 17.9312 34.8466 17.873 34.9529 17.6957C35.1013 17.4709 35.2497 17.2461 35.3708 17.0139C35.4423 16.8567 35.4242 16.7049 35.2743 16.6059C35.1519 16.5143 34.9726 16.5251 34.8535 16.6401C34.6503 16.8503 34.4671 17.0951 34.3113 17.3474C34.2123 17.4973 34.298 17.726 34.4479 17.825Z" fill="#333D29"/>
<path id="Vector_15" d="M36.4283 16.7973C36.5473 16.6823 36.6663 16.5672 36.7579 16.4448C36.877 16.3296 37.0034 16.1871 37.0749 16.0299C37.2032 15.7703 37.0152 15.4847 36.7041 15.5484C36.2961 15.6449 35.9792 16.0597 35.8489 16.4364C35.7259 16.7856 36.1975 17.0001 36.4283 16.7973Z" fill="#333D29"/>
</g>
</g>
</g>
</g>
<defs>
<clipPath id="clip0_109_409">
<rect width="60" height="55.8" fill="white" transform="translate(14.4421) rotate(15)"/>
</clipPath>
</defs>
</svg>
