<svg width="71" height="98" viewBox="0 0 71 98" fill="none" xmlns="http://www.w3.org/2000/svg">
<g clip-path="url(#clip0_109_506)">
<mask id="mask0_109_506" style="mask-type:luminance" maskUnits="userSpaceOnUse" x="0" y="0" width="71" height="98">
<path d="M70.943 12.941L22.6467 0L0.0810754 84.2162L48.3774 97.1571L70.943 12.941Z" fill="white"/>
</mask>
<g mask="url(#mask0_109_506)">
<path d="M62.7683 41.0313C61.7873 38.0745 58.5712 35.951 56.0908 34.2635C55.742 33.147 55.2001 32.1152 54.2951 31.293C52.0296 29.1855 48.9526 27.8154 46.1534 26.5539C46.6195 23.5416 46.8948 20.4782 47.2251 17.4636C47.4247 15.5734 47.6328 13.6513 47.7688 11.7441C47.8746 10.2038 47.9571 8.62323 46.8595 7.37433C45.5183 5.88964 43.2633 5.52412 41.3777 5.05297C39.4284 4.56475 37.4876 4.04473 35.5383 3.55652C32.976 2.93815 31.3504 5.06006 31.078 7.47638C30.825 9.69329 32.3049 10.5331 34.1821 11.0361C35.3911 11.3601 36.6086 11.6522 37.8579 11.9528C38.2715 12.0637 38.9738 12.1154 39.3214 12.345C40.0486 12.8127 39.7883 14.0387 39.7366 14.7409C39.5187 17.7175 39.1332 20.6832 38.6927 23.6001C36.2537 22.776 33.5602 21.8838 30.9779 21.9761C29.8745 22.0215 28.7984 22.347 27.7836 22.8253C27.7519 22.8168 27.7518 22.8168 27.72 22.8082C25.0492 22.4677 21.9181 21.9356 19.2756 22.762C16.5206 23.6265 15.5539 26.4706 14.8719 29.0159C14.5735 30.1294 14.1518 31.4487 14.5324 32.5736C14.7437 33.3122 15.2436 33.9918 15.7606 34.6077C13.5304 43.6945 11.436 52.7834 9.4603 61.9385C8.55767 66.198 7.62321 70.449 6.79288 74.6932C6.14596 77.9984 7.36498 80.5757 9.64934 82.9949C14.7139 88.2736 23.3643 91.751 30.7005 90.7154C33.96 90.259 36.4207 88.8385 38.2487 86.0889C40.2318 83.1417 41.8206 79.885 43.4475 76.7404C47.9242 68.0505 52.615 59.4527 57.0365 50.7143C58.174 50.5418 59.2268 50.1759 59.9427 49.413C60.9751 48.3597 61.5332 46.5314 62.0992 45.1827C62.6886 43.8743 63.2396 42.4534 62.7683 41.0313ZM19.5566 25.5312C20.1578 24.9421 21.0896 24.6462 22.1293 24.5838C23.1604 24.5532 24.253 24.6754 25.2416 24.8039C25.1035 24.9374 24.9569 25.1027 24.8103 25.2681C23.2614 27.1036 24.8549 28.7923 26.3854 29.9526C28.7363 31.7419 31.5098 33.0989 34.1818 34.3263C38.9467 36.5238 43.9178 38.3332 49.0277 39.4978C51.2804 39.9991 56.426 41.4119 56.4496 37.6332C56.4433 37.5292 56.4371 37.4252 56.4627 37.3298C56.5729 37.4275 56.7234 37.502 56.8336 37.5997C59.0317 39.4504 61.937 42.4794 58.1701 43.1751C54.4349 43.8792 50.1716 42.7369 46.5998 41.8139C41.874 40.6159 37.2676 38.9724 32.8527 36.8687C28.7241 34.8417 24.2649 32.5216 20.9482 29.2459C20.1154 28.409 18.3861 26.718 19.5566 25.5312ZM31.518 24.542C32.1248 24.5681 32.7059 24.6898 33.2957 24.7796C34.9757 25.1275 36.6301 25.5708 38.2908 26.118C38.2737 26.1817 38.2567 26.2453 38.2714 26.3175C38.1527 26.2515 38.0339 26.1856 37.947 26.1282C37.2028 25.7242 36.6181 26.7611 37.3049 27.252C38.6468 28.2253 40.1268 29.0652 41.6261 29.7056C42.8476 30.2375 44.2662 30.9246 45.6031 30.7712C46.2036 30.6935 46.3741 30.0572 45.8929 29.6895C45.8059 29.6321 45.719 29.5747 45.6321 29.5173C45.6895 29.4304 45.7151 29.335 45.7407 29.2395C45.7577 29.1759 45.7748 29.1123 45.7833 29.0805C47.1786 29.7272 48.5251 30.4289 49.8545 31.1943C50.7089 31.6961 52.0895 32.2706 52.6508 33.103C52.9155 33.5149 53.2763 33.4411 52.5144 33.612C52.0814 33.7006 51.4218 33.4898 50.9997 33.4108C50.2191 33.2698 49.447 33.097 48.7067 32.9328C46.3904 32.4144 44.1337 31.6733 41.9345 30.8454C39.6716 30.0004 37.4428 29.028 35.297 27.8734C33.9824 27.1801 32.3876 26.5141 31.2537 25.5283C30.3487 24.7061 30.6078 24.5027 31.518 24.542ZM43.4903 28.6025C43.0534 28.4513 42.6079 28.3319 42.2114 28.1575C41.5603 27.9148 40.9581 27.6171 40.3474 27.3511C40.3559 27.3193 40.3559 27.3193 40.3644 27.2875C40.8772 24.3558 41.2944 21.3987 41.6396 18.4562C41.8368 16.7018 42.487 14.148 41.9355 12.2611C42.4701 12.3021 42.9815 12.3027 43.5246 12.3119C44.2036 12.3233 44.7933 12.4131 45.4063 12.5432C45.2943 13.9795 45.1504 15.4073 45.0065 16.835C44.5966 20.7831 44.2502 24.7482 43.4903 28.6025ZM45.4015 9.50705C45.5685 10.0292 45.5508 10.6042 45.5246 11.2109C44.5468 10.9148 43.3713 10.975 42.3146 11.101C42.7754 10.7812 43.2594 10.5017 43.6629 10.2688C44.2044 9.90238 44.7987 9.72062 45.4015 9.50705ZM44.4056 8.3877C43.7624 8.62457 43.1488 9.00575 42.6477 9.34887C42.3164 9.567 41.9448 9.80844 41.588 10.122C41.85 9.27152 42.1841 8.40627 42.6836 7.68759C43.3199 7.8581 43.9073 8.0837 44.4056 8.3877ZM36.7429 9.36936C35.8753 9.17101 35.0163 8.94084 34.1891 8.71919C33.0522 8.38045 33.0643 7.19021 33.8632 6.24487C34.5473 5.47337 35.3233 5.88592 36.2142 6.12463C37.1686 6.38036 38.1635 6.61283 39.1179 6.86858C39.8179 7.05614 40.5985 7.1971 41.3706 7.36988C40.8518 8.28797 40.5387 9.32936 40.3613 10.373C39.2609 9.77126 37.8013 9.61891 36.7429 9.36936ZM29.1499 24.7259C29.3816 26.1519 32.4625 27.7618 33.2068 28.1658C37.7506 30.6791 42.6218 32.7345 47.7146 33.9627C48.4548 34.127 52.4381 35.2966 53.8182 34.4729C53.871 34.6576 53.9324 34.8104 53.9767 35.0268C54.063 35.5956 54.5446 37.3614 54.3298 37.7813C54.3384 37.7495 53.4662 37.8227 53.0674 37.784C52.189 37.7533 51.3448 37.5952 50.509 37.4054C48.2796 36.9444 46.0611 36.3159 43.8999 35.6004C38.8139 33.9648 33.824 31.8435 29.2847 29.0586C28.3752 28.508 26.1231 27.4953 26.9902 26.2955C27.4323 25.6637 28.305 25.0792 29.1499 24.7259ZM23.3158 87.9866C19.5212 87.0041 15.8187 85.2961 12.8003 82.8164C11.5477 81.7643 10.3609 80.5938 9.55421 79.1503C8.63113 77.5048 8.7983 76.1173 9.195 74.3824C10.0527 70.4177 10.8382 66.468 11.6641 62.4949C12.4877 58.6578 13.343 54.8292 14.1984 51.0006C16.8301 64.5955 25.5741 76.7591 34.7704 86.7253C34.5028 86.9606 34.2436 87.1639 33.9295 87.3184C30.925 89.2413 26.6014 88.8328 23.3158 87.9866ZM44.0042 70.7173C42.8472 72.9991 41.6904 75.2804 40.5016 77.5536C35.6626 71.6874 31.0826 65.6182 27.4158 58.9411C25.4934 55.4253 23.8365 51.8097 22.3812 48.078C21.5922 46.0593 20.8118 44.0087 20.1438 41.9202C19.6724 40.4981 19.3134 39.0379 18.9227 37.5692C20.5867 38.8676 22.4376 39.9773 24.2738 41.0149C30.1214 44.3891 36.4771 47.0128 42.9738 48.8559C46.0747 49.7549 49.212 50.391 52.4112 50.6685C53.0095 50.7265 53.7117 50.7783 54.4139 50.8301C51.0579 57.501 47.424 64.0631 44.0042 70.7173ZM54.5164 48.5387C48.0156 48.3654 41.6741 46.3252 35.6576 43.9629C32.5061 42.7434 29.4462 41.3096 26.5096 39.6703C23.8019 38.1946 21.0561 36.6064 18.799 34.467C17.5952 33.3602 16.5482 32.4317 16.8091 30.6944C16.9803 29.5467 17.3639 28.115 17.9424 26.9742C18.282 28.6338 19.8164 30.0338 21.0373 31.0771C23.2904 32.9766 25.8367 34.5455 28.3938 35.9468C33.9513 39.0045 39.9445 41.3265 46.0935 42.94C48.6472 43.5901 51.2266 44.1449 53.8509 44.4047C55.6774 44.5873 57.7841 44.7425 59.5608 44.0933C59.8665 43.9706 60.1318 43.8712 60.342 43.7229C59.9374 44.9786 59.2481 46.533 58.5765 47.5124C57.7327 48.7526 55.8106 48.5445 54.5164 48.5387Z" fill="#333D29"/>
<path d="M50.3872 54.15C46.8471 60.3623 43.3132 66.6789 40.2247 73.1148C39.9928 73.5983 40.6649 74.017 40.9604 73.5506C44.6193 67.4041 47.8839 60.9471 51.0996 54.5455C51.3547 54.1024 50.6423 53.7069 50.3872 54.15Z" fill="#333D29"/>
<path d="M10.4893 74.3879C9.85338 75.6157 9.77706 77.3003 10.2827 78.5948C10.4287 78.9409 11.0099 79.0624 11.106 78.5768C11.3833 77.2871 11.4169 75.7618 11.2234 74.448C11.1325 74.1508 10.6381 74.0867 10.4893 74.3879Z" fill="#333D29"/>
<path d="M10.9792 72.8142C10.9706 72.8461 10.9621 72.8779 10.9535 72.9098C10.945 72.9417 10.9365 72.9736 10.9597 73.014C10.9597 73.014 10.9597 73.014 10.9513 73.0454C11.112 73.4637 11.6296 73.5682 11.908 73.1656C11.9654 73.0785 11.9909 72.9833 11.9933 72.8473C11.9979 72.5757 11.7308 72.2997 11.4507 72.3271C11.2428 72.3392 11.0814 72.4327 10.9985 72.6149C10.9985 72.6149 10.9985 72.6149 10.9899 72.6468L10.9814 72.6786C10.9728 72.7105 10.9643 72.7424 10.9792 72.8142Z" fill="#333D29"/>
<path d="M25.5701 37.577C24.0901 36.7372 22.6505 35.8741 21.2768 34.8922C20.874 34.6137 20.4955 35.2625 20.8898 35.5728C22.255 36.5865 23.6861 37.4815 25.2235 38.2344C25.6115 38.4406 25.9814 37.8236 25.5701 37.577Z" fill="#333D29"/>
<path d="M43.8313 14.9855C43.5822 17.4422 43.3331 19.8989 43.0523 22.347C43.0136 22.7458 43.6755 22.8209 43.7778 22.4391C44.2984 19.987 44.6282 17.4838 44.6545 14.9674C44.6551 14.4561 43.8637 14.4827 43.8313 14.9855Z" fill="#333D29"/>
</g>
</g>
<defs>
<clipPath id="clip0_109_506">
<rect width="50" height="87.5" fill="white" transform="translate(22.6467) rotate(15)"/>
</clipPath>
</defs>
</svg>
