<svg width="20" height="20" viewBox="0 0 20 20" fill="none" xmlns="http://www.w3.org/2000/svg">
<path d="M2.76172 8.5C2.13281 8.5 1.625 7.99219 1.625 7.36328C1.625 7.28906 1.63281 7.21875 1.64844 7.14453C1.85547 6.32422 3.45312 1 10.375 1C17.2969 1 18.8945 6.32422 19.1016 7.14453C19.1211 7.21875 19.125 7.28906 19.125 7.36328C19.125 7.99219 18.6172 8.5 17.9883 8.5H2.76172ZM6 4.75C6 4.58424 5.93415 4.42527 5.81694 4.30806C5.69973 4.19085 5.54076 4.125 5.375 4.125C5.20924 4.125 5.05027 4.19085 4.93306 4.30806C4.81585 4.42527 4.75 4.58424 4.75 4.75C4.75 4.91576 4.81585 5.07473 4.93306 5.19194C5.05027 5.30915 5.20924 5.375 5.375 5.375C5.54076 5.375 5.69973 5.30915 5.81694 5.19194C5.93415 5.07473 6 4.91576 6 4.75ZM15.375 5.375C15.5408 5.375 15.6997 5.30915 15.8169 5.19194C15.9342 5.07473 16 4.91576 16 4.75C16 4.58424 15.9342 4.42527 15.8169 4.30806C15.6997 4.19085 15.5408 4.125 15.375 4.125C15.2092 4.125 15.0503 4.19085 14.9331 4.30806C14.8158 4.42527 14.75 4.58424 14.75 4.75C14.75 4.91576 14.8158 5.07473 14.9331 5.19194C15.0503 5.30915 15.2092 5.375 15.375 5.375ZM11 3.5C11 3.33424 10.9342 3.17527 10.8169 3.05806C10.6997 2.94085 10.5408 2.875 10.375 2.875C10.2092 2.875 10.0503 2.94085 9.93306 3.05806C9.81585 3.17527 9.75 3.33424 9.75 3.5C9.75 3.66576 9.81585 3.82473 9.93306 3.94194C10.0503 4.05915 10.2092 4.125 10.375 4.125C10.5408 4.125 10.6997 4.05915 10.8169 3.94194C10.9342 3.82473 11 3.66576 11 3.5ZM1 11.625C1 10.5898 1.83984 9.75 2.875 9.75H17.875C18.9102 9.75 19.75 10.5898 19.75 11.625C19.75 12.6602 18.9102 13.5 17.875 13.5H2.875C1.83984 13.5 1 12.6602 1 11.625ZM1.625 15.375C1.625 15.0312 1.90625 14.75 2.25 14.75H18.5C18.8438 14.75 19.125 15.0312 19.125 15.375V16C19.125 17.3789 18.0039 18.5 16.625 18.5H4.125C2.74609 18.5 1.625 17.3789 1.625 16V15.375Z" fill="#C2C5AA"/>
</svg>
