<svg width="40" height="100" viewBox="0 0 40 100" fill="none" xmlns="http://www.w3.org/2000/svg">
<mask id="mask0_152_18" style="mask-type:luminance" maskUnits="userSpaceOnUse" x="0" y="0" width="40" height="99">
<path d="M40 0H0V98.8692H40V0Z" fill="white"/>
</mask>
<g mask="url(#mask0_152_18)">
<path d="M38.0352 42.1131C37.405 40.3707 36.5524 38.7024 36.2558 36.8488C35.6997 33.4383 36.1817 29.7682 36.4041 26.3576C36.7377 21.6125 37.0343 16.8674 37.3309 12.1222C38.5913 11.6032 39.0361 10.4911 39.5181 8.74874C40.1112 6.63566 40.482 4.70794 38.5913 3.15096C36.5895 1.51982 33.9203 0.926683 31.4365 0.481827C28.9527 0.0369683 26.0612 -0.407889 23.6515 0.667183C21.798 1.48275 21.0936 3.26218 20.8712 5.1899C20.6858 6.89518 20.6117 8.78582 22.0945 9.71258C20.8712 13.9017 19.6478 18.0537 18.4615 22.2427C17.646 25.1343 16.8304 28.0259 15.7924 30.8433C14.4208 34.4763 11.4921 36.923 9.45322 40.1483C5.19002 46.8211 3.41057 54.4579 3.33643 62.3539C3.33643 64.4299 3.41057 66.5059 3.52179 68.5819C3.67007 70.8803 3.92957 73.1787 3.26229 75.4403C2.3355 78.5171 0.667292 81.2975 0.185365 84.5227C-0.296563 87.8591 0.0370796 92.2707 2.78036 94.6059C5.07878 96.5707 8.37813 96.6451 11.2326 96.0519C12.3077 96.9787 13.5311 97.6831 14.8656 98.0167C16.5709 98.4243 19.0176 98.2759 20.7971 97.3123C22.8731 98.7579 25.7646 99.5735 27.9889 98.2019C30.4356 96.6819 31.9185 93.4567 32.5487 90.7507C33.253 87.7479 32.8082 84.8191 32.8082 81.8163C32.8082 77.9239 34.6988 74.6247 36.1075 71.0655C39.0732 63.5403 40.6672 55.7923 39.4069 47.7479C39.0732 45.8199 38.6655 43.9295 38.0352 42.1131ZM30.4356 22.7617C29.101 22.4651 27.7294 22.7246 26.3948 22.3169C24.7637 21.8349 23.0584 20.834 21.3902 21.2789C21.9833 19.2399 22.5765 17.201 23.1325 15.125C25.2827 15.5328 27.0992 16.7561 29.3235 16.8303C30.6209 16.8674 31.8443 16.7561 33.1047 17.1269C33.6608 17.2751 34.0686 17.4605 34.5135 17.5347C34.4022 19.4623 34.2539 21.353 34.1427 23.2807C34.1427 23.4661 34.1057 23.6143 34.1057 23.7997C32.734 23.8368 31.7331 23.0212 30.4356 22.7617ZM24.5042 10.3799C25.0603 10.5282 25.5051 10.7877 26.0612 11.0842C26.4319 11.3067 26.7655 11.492 27.2104 11.5291C27.8406 11.6032 28.3967 11.1213 28.9898 11.2325C29.8795 11.7886 30.658 12.3447 31.7702 12.1964C32.5487 12.1222 33.0677 12.011 33.8462 12.1964C34.2169 12.2705 34.5135 12.3447 34.81 12.3817C34.7359 13.6051 34.6617 14.8284 34.5505 16.0147C33.6979 16.0147 32.5487 15.4216 31.7702 15.3474C30.5097 15.2362 29.2123 15.4957 27.9889 15.1621C26.3207 14.7172 25.0603 13.9758 23.4662 13.9758C23.7998 12.7895 24.1335 11.6032 24.5042 10.3799ZM24.4671 3.03975C26.0241 2.15003 28.4708 2.55782 30.139 2.81732C31.6589 3.03975 33.1789 3.33632 34.6247 3.85532C35.3661 4.11482 36.2558 4.44846 36.8489 5.00454C37.8128 5.85718 37.5162 6.48738 37.2197 7.56246C37.0714 8.04438 36.9972 9.11946 36.7007 9.52722C36.5895 9.6755 36.4412 9.78674 36.2929 9.82382C36.1075 9.82382 35.8851 9.86086 35.6997 9.93502C35.1437 9.93502 34.5135 9.6755 34.0686 9.5643C33.4755 9.41602 33.0677 9.37894 32.4375 9.4531C31.5107 9.52722 31.0658 9.4531 30.3244 9.15654C30.1761 9.00822 29.9537 8.85994 29.6571 8.82286C28.9157 8.67458 28.582 8.85994 27.8777 8.85994C27.0992 8.85994 26.988 8.5263 26.2836 8.19266C25.7275 7.93318 25.1715 7.8961 24.5783 7.82194C24.4301 7.78486 24.2817 7.78486 24.1335 7.74782C23.9852 7.67366 23.8369 7.63658 23.6515 7.63658C23.355 7.4883 23.2808 7.22882 23.2808 6.56154C23.2808 5.37526 23.355 3.70703 24.4671 3.03975ZM16.0149 35.8108C17.0899 34.4021 17.7201 32.8451 18.3503 31.1769C19.3142 28.5819 20.0556 25.9128 20.7971 23.2436C20.8712 22.9471 20.9453 22.6876 21.0565 22.391C23.7257 22.0573 25.987 23.8739 28.6191 24.0592C30.0278 24.1333 31.0658 24.6153 32.4004 25.0601C32.9565 25.2455 33.4755 25.3196 33.9574 25.2826C33.5496 30.1389 32.8823 35.3289 34.5135 39.8516C34.81 40.6671 35.1066 41.5199 35.3661 42.3355C28.1372 41.5199 21.0565 40.0739 14.0501 38.1463C14.7173 37.4049 15.4217 36.6264 16.0149 35.8108ZM29.9537 90.5651C29.5088 92.2707 28.6933 93.9759 27.4699 95.2363C26.0983 96.6819 24.1335 96.4227 22.6135 95.4587C22.6506 95.3847 22.6877 95.3475 22.7247 95.2731C22.9472 94.7171 22.6877 93.8647 21.9463 93.9387C20.8712 94.0127 20.2039 94.5319 19.2771 95.0139C18.0167 95.6811 16.6821 95.7923 15.3105 95.4215C13.0121 94.7915 11.4551 93.5311 9.86098 91.8255C9.26785 91.1955 8.37813 92.0111 8.71177 92.7155C8.89713 93.0859 9.08249 93.4199 9.30493 93.7903C6.96942 94.0127 4.48566 93.5311 3.3735 91.2327C1.70529 87.7847 2.63208 83.6699 4.07786 80.3335C5.19002 77.8127 6.11678 75.3287 6.22801 72.5855C14.2354 75.0695 22.5394 76.6263 30.8805 77.5163C30.5468 78.7395 30.2873 79.9627 30.2873 81.2975C30.2503 84.4115 30.8063 87.4883 29.9537 90.5651ZM31.7331 75.0323C31.6589 74.9951 31.5477 74.9951 31.4365 74.9583C22.8731 74.0683 14.4579 72.3631 6.15386 70.0647C6.04265 66.7655 5.74606 63.5031 5.89434 60.2039C6.19094 53.1231 8.19277 45.9315 12.3819 40.1483C20.0927 42.5947 28.1001 44.1519 36.1446 44.9675C36.6265 46.7099 36.9972 48.4891 37.1826 50.3799C37.3309 52.1591 37.3679 53.9759 37.2567 55.7551C34.6247 52.9379 31.2512 50.6023 27.4328 50.0091C24.0593 49.5271 20.3522 50.8619 19.203 54.3467C17.9796 58.0907 20.0927 62.2799 22.3911 65.1343C25.0603 68.4335 28.9157 70.8063 33.1047 71.5847C33.0306 71.8071 32.9194 71.9923 32.8452 72.2151C32.5116 73.2159 32.1038 74.1427 31.7331 75.0323ZM34.1057 69.2863C30.6951 68.8415 27.4699 66.9507 25.1715 64.5039C23.1696 62.3539 21.0936 59.0547 21.5385 55.9775C21.9463 53.0491 24.9861 52.1591 27.544 52.6783C31.3253 53.4199 34.6988 56.2743 36.9231 59.3139C36.7748 60.1667 36.6265 60.9823 36.4412 61.8351C35.848 64.3559 35.0325 66.8395 34.1057 69.2863Z" fill="#C2C5AA"/>
<path d="M23.5033 34.9581C24.2076 35.44 25.0974 35.3288 25.7276 34.8098C27.025 33.7718 26.6914 31.3251 24.912 31.1397C24.5413 31.1027 24.3188 31.6587 24.6154 31.8811C25.1715 32.326 25.6164 32.9191 25.1715 33.6606C24.7266 34.4391 23.7257 34.2537 23.6145 33.364C23.5774 33.0303 23.0584 32.7709 22.9101 33.1786C22.6136 33.8089 22.8731 34.5503 23.5033 34.9581Z" fill="#C2C5AA"/>
<path d="M32.5486 21.5014C32.3633 21.6497 32.3633 21.9092 32.4374 22.0575V22.0946C32.6599 22.5023 33.2901 22.354 33.3642 21.9092C33.4384 21.4273 32.8823 21.1678 32.5486 21.5014Z" fill="#C2C5AA"/>
<path d="M30.658 21.0564C30.0648 21.0564 30.0648 21.9832 30.658 21.9832C31.2512 21.9832 31.2512 21.0564 30.658 21.0564Z" fill="#C2C5AA"/>
<path d="M31.0658 19.5735C30.4356 19.5735 30.4356 20.5744 31.0658 20.5744C31.696 20.5373 31.696 19.5735 31.0658 19.5735Z" fill="#C2C5AA"/>
<path d="M32.3262 19.9443C31.7702 19.9443 31.7702 20.8341 32.3262 20.8341C32.9194 20.797 32.9194 19.9443 32.3262 19.9443Z" fill="#C2C5AA"/>
<path d="M31.8072 18.0167C31.4736 17.7201 30.9546 17.8313 30.8434 18.2391C30.7321 18.6098 31.1028 19.0918 31.5106 18.9064C31.5106 18.9064 31.5477 18.9064 31.5477 18.8693C31.7331 18.7952 31.8443 18.684 31.9184 18.4986C31.9926 18.3503 31.9555 18.165 31.8072 18.0167Z" fill="#C2C5AA"/>
<path d="M29.138 40.8526C29.7312 40.7042 30.3984 40.0738 30.658 39.5179C30.9545 38.8136 30.5097 38.035 29.9536 37.5902C29.657 37.3678 29.1751 37.7385 29.3234 38.0721C29.4346 38.3316 29.7312 38.7394 29.657 38.9989C29.5829 39.1842 29.2122 39.4808 28.9897 39.5179C28.3595 39.7032 28.3224 38.9989 28.2854 38.5911C28.2483 38.2204 27.8776 37.9609 27.544 38.1462C26.8767 38.554 26.8025 39.4067 27.1732 40.0738C27.581 40.7042 28.3966 41.0378 29.138 40.8526Z" fill="#C2C5AA"/>
<path d="M8.74877 81.52C8.52637 81.594 8.37809 81.8908 8.52637 82.076C8.71173 82.3356 9.00829 82.4468 9.19365 82.7432C9.45313 83.114 9.45313 83.5588 9.23073 83.9296C9.00829 84.226 8.71173 84.3744 8.41513 84.1148C8.15565 83.8924 8.04445 83.3736 7.93321 83.0768C7.78493 82.7432 7.22885 82.5208 7.04349 82.9656C6.67281 83.8184 6.85813 84.708 7.63665 85.3012C8.34101 85.82 9.26777 85.7088 9.89801 85.1528C10.5282 84.5968 10.6394 83.6328 10.3799 82.8544C10.1204 82.15 9.49021 81.2604 8.74877 81.52Z" fill="#C2C5AA"/>
<path d="M15.7925 77.961C15.4959 78.0722 15.5701 78.517 15.7925 78.6654C16.1632 78.9246 16.4969 78.999 16.571 79.5178C16.6081 79.8514 16.4969 80.2962 16.2744 80.5558C16.1261 80.7414 15.6813 81.075 15.4218 80.9266C15.1993 80.8154 15.0881 80.037 15.014 79.8146C14.9399 79.4438 14.3096 79.3326 14.1613 79.7034C13.7536 80.593 13.6794 81.631 14.6803 82.187C15.533 82.669 16.6081 82.2982 17.1641 81.557C17.7202 80.8526 17.8685 79.9626 17.609 79.1102C17.3865 78.4058 16.6451 77.6274 15.7925 77.961Z" fill="#C2C5AA"/>
<path d="M24.0594 90.009C23.6887 90.009 23.318 90.3426 23.318 90.7506C23.318 91.1582 23.6516 91.4918 24.0594 91.4918C24.4302 91.4918 24.8009 91.1582 24.8009 90.7506C24.7638 90.3426 24.4672 90.009 24.0594 90.009Z" fill="#C2C5AA"/>
<path d="M25.468 89.1194C25.4309 89.1194 25.4309 89.1194 25.3939 89.0822C25.1714 89.0082 24.8749 89.1934 24.8007 89.4158C24.7266 89.6382 24.8749 89.935 25.1343 90.009C25.1714 90.009 25.1714 90.009 25.2085 90.009C25.8387 90.1202 26.0241 89.3046 25.468 89.1194Z" fill="#C2C5AA"/>
<path d="M24.8007 88.4152C25.0232 88.1928 24.9861 87.7852 24.6895 87.6368C24.2076 87.3772 23.6886 88.0076 24.0964 88.4152C24.2817 88.6008 24.5783 88.6008 24.8007 88.4152Z" fill="#C2C5AA"/>
<path d="M24.3189 80.9636C23.9481 81.0752 23.9111 81.6312 24.3189 81.7424C24.6525 81.8536 24.7266 82.1132 24.7266 82.4096C24.7266 82.5948 24.7266 82.8544 24.5783 82.9656C24.4301 83.0768 24.1335 83.0396 23.9852 83.0028C23.8369 82.9656 23.7257 82.8544 23.6145 82.6692C23.3179 82.2612 22.7619 82.4096 22.6877 82.9284C22.6136 83.67 23.0213 84.1892 23.7628 84.2632C24.4301 84.3372 25.1715 84.2632 25.5793 83.7072C26.1724 82.8916 25.6905 80.556 24.3189 80.9636Z" fill="#C2C5AA"/>
<path d="M31.6589 27.0992C31.7701 27.4699 32.215 27.4699 32.4003 27.2104L32.4374 27.1734C32.6227 26.9139 32.4003 26.5432 32.1037 26.5061C31.8072 26.469 31.5477 26.7656 31.6218 27.0622C31.6589 27.0622 31.6589 27.0992 31.6589 27.0992Z" fill="#C2C5AA"/>
<path d="M30.4356 26.135C30.6209 25.9126 30.6209 25.7273 30.5468 25.5048V25.4678C30.4727 25.2824 30.2132 25.1712 29.9907 25.2083C29.7313 25.2454 29.5459 25.4307 29.5088 25.6902C29.4347 26.1721 30.0649 26.5428 30.4356 26.135Z" fill="#C2C5AA"/>
<path d="M30.1761 26.9138C29.62 26.9138 29.62 27.7665 30.1761 27.7665C30.7321 27.7665 30.7321 26.9138 30.1761 26.9138Z" fill="#C2C5AA"/>
<path d="M10.3429 46.7099C7.48846 51.9367 6.3763 58.5355 7.00654 64.4299C7.08066 64.9859 7.89626 65.0231 7.9333 64.4299C8.00746 58.3131 9.08254 52.7895 11.1956 47.0807C11.3809 46.5987 10.6025 46.2651 10.3429 46.7099Z" fill="#C2C5AA"/>
<path d="M18.4615 35.329C19.759 33.1418 21.5384 30.1019 21.2418 27.4699C21.2048 27.025 20.5004 26.8396 20.3892 27.3586C19.8331 30.0278 18.5727 32.4374 17.6459 34.9954C17.4976 35.4402 18.202 35.7368 18.4615 35.329Z" fill="#C2C5AA"/>
<path d="M25.0603 4.74512C25.2456 4.18904 26.2095 4.41148 26.6173 4.2632C27.1733 4.04076 27.1363 3.37347 26.6173 3.15104C26.0983 2.92861 25.3939 3.0769 24.912 3.37347C24.5042 3.5959 24.1335 4.00368 24.0223 4.4856C23.9111 5.11584 24.8378 5.37532 25.0603 4.74512Z" fill="#C2C5AA"/>
<path d="M28.0261 4.3744C28.7304 4.3744 28.7304 3.29932 28.0261 3.29932C27.3217 3.29932 27.3217 4.3744 28.0261 4.3744Z" fill="#C2C5AA"/>
<path d="M24.912 72.178C21.6868 71.622 18.4245 71.214 15.1993 70.584C14.6432 70.4724 14.3837 71.3252 14.9769 71.4364C18.2021 72.1408 21.5014 72.808 24.8379 73.0304C25.2457 73.0304 25.3569 72.252 24.912 72.178Z" fill="#C2C5AA"/>
<path d="M27.2845 72.3263C27.1733 72.2519 26.9879 72.2519 26.8396 72.2891C26.7284 72.2891 26.6543 72.2891 26.5431 72.3263C26.3206 72.4003 26.1723 72.6967 26.2464 72.9195C26.3577 73.1787 26.543 73.3643 26.8025 73.4011C27.062 73.4383 27.3586 73.3271 27.4698 73.0675C27.581 72.8079 27.544 72.4743 27.2845 72.3263Z" fill="#C2C5AA"/>
</g>
</svg>
